<?xml version="1.0" encoding="utf-8"?>
<!-- Generator: Adobe Illustrator 25.1.0, SVG Export Plug-In . SVG Version: 6.00 Build 0)  -->
<svg version="1.1" id="Layer_1" xmlns="http://www.w3.org/2000/svg" xmlns:xlink="http://www.w3.org/1999/xlink" x="0px" y="0px"
	 viewBox="0 0 1366 768" style="enable-background:new 0 0 1366 768;" xml:space="preserve">
<style type="text/css">
	.st0{fill:none;}
	.st1{fill:#FEBA91;}
	.st2{fill:#972F0A;}
	.st3{fill:#FEB15A;}
	.st4{fill:#FE9D49;}
	.st5{fill:#808D97;}
	.st6{fill:#FE675B;}
	.st7{fill:#FFFFFF;}
	.st8{fill:#FEAA7F;}
	.st9{fill:#F3DDD9;}
	.st10{fill:#020202;}
	.st11{fill:#9E6B4A;}
	.st12{fill:#D07653;}
	.st13{fill:#7E1D0F;}
	.st14{fill:#E69D75;}
	.st15{fill:#D47852;}
</style>
<g>
	<path class="st0" d="M570.5,321.6c0,0-20.9,10-20.6-31.3C549.6,331.7,570.5,321.7,570.5,321.6c4.1,42.8,34.2,67.7,60.7,81.6
		c3.9,7.2,5.3,14.5,5.2,21.4c0.1-6.9-1.3-14.2-5.2-21.5C604.7,389.3,574.6,364.3,570.5,321.6z"/>
	<path class="st0" d="M765.1,548c0-5.7,0.4-11.3,0.9-16.5c0.2-1.9,0.3-3.8,0.3-5.7c0,1.8-0.1,3.6-0.3,5.5
		C765.4,536.5,765.1,542.1,765.1,548z"/>
	<path class="st0" d="M638.7,441.9c2.6-5.3,3.8-22.7,4.2-33.1c0,0,0,0,0,0c0,0,0-0.1,0-0.1C642.4,419.2,641.3,436.5,638.7,441.9
		c-3.8,7.8-7,7.6-7,7.6s-0.9,0.6-2.5,1.6c0,0,0,0,0,0c1.6-1,2.5-1.6,2.5-1.6S634.9,449.7,638.7,441.9z"/>
	<path class="st0" d="M686.3,411.9c4.9-2.4,9.5-4.9,13.8-7.4c6.3-3.6,12-7.3,17.1-10.9l-3.8,6.1c-4.8,7.7-7.2,16.2-7.4,24.7
		c0.2-8.5,2.6-17,7.4-24.7l3.8-6.1c42.3-29.9,46.2-58.4,46.2-67.9c0,9.7-4,38-46.2,67.8c-8.7,6.1-18.9,12.3-31.1,18.4
		C686.2,411.9,686.2,411.9,686.3,411.9z"/>
	<path class="st0" d="M657.3,414.2c0.1,0,0.2,0,0.2,0c-4.3-1.4-9.3-3.3-14.7-5.6c0.1,0.1,0.2,0.1,0.3,0.2
		C648.4,411.1,653.2,412.9,657.3,414.2z"/>
	<path class="st0" d="M752,476.3l44.3,30c4.2,2.5,5.3,8.7,5.3,8.7c2.7,5.1,11.1,36.3,11.8,38.9l0.1,0c0,0-9-33.8-11.8-39.1
		c0,0-1.1-6.2-5.3-8.7l-44.2-29.9l-40.3-27.3c0.1,0.1,0.1,0.2,0.2,0.3L752,476.3z"/>
	<path class="st0" d="M763.2,322.2C763.2,322.2,763.2,322.3,763.2,322.2c0.2,0,18.7-8,19.2-25.5
		C781.9,314.3,763.2,322.2,763.2,322.2z"/>
	<path class="st1" d="M722.1,293.9c0,0-7.7,0.2-15.4,0C713,294.4,719.5,294.6,722.1,293.9z"/>
	<path class="st1" d="M657.6,414.3c11.1,2.4,21,0.4,28.5-2.3c12.2-6.1,22.5-12.3,31.1-18.4l24.8-39.8c20.9-33.3,22.8-75.1,5.1-110.1
		c-11.6-0.9-28.9-0.9-38.7,5.6c0,0-8.6,4.4-11.3,6.3c-2.7,1.9-5.8-4.6-3.5-6.1s15.9-8.7,19.8-9.5c2.8-0.6,18.3-2.8,31.3-0.5
		c-2.6-4.7-5.7-9.2-9.1-13.4c0,0-10.6-16.4-55.9-28.5c-45.3-12.1-56.3-17.9-56.3-17.9c-1.9,24.7-12.8,41.5-22.5,59.9
		c13.1-2.3,28.7-0.1,31.5,0.5c4,0.8,17.5,7.9,19.8,9.5s-0.8,8-3.5,6.1c-2.7-1.9-11.3-6.3-11.3-6.3c-9.8-6.5-27.2-6.5-38.7-5.6
		c-3.2,6.3-6.2,12.9-8.6,20.1c1.8,0.3,4.3,0.2,7.3-1.3c0,0,0.6-0.3,1.7-0.9c1-1.3,3.3-3.1,3.3-3.1s6.6-3.1,14.6-3.9
		c-7.1-0.1-12.5,0.8-12.5,0.8s42.2-17.1,48.2,13.6c0,0,9.4,32.8,5.5,42.6c0,0-3-38.4-15.8-49.5c-3-2.6-6.6-4.3-10.5-5.5
		c1,0.5,2,1.1,2.9,1.8c8.9,6.8,12.1,18.2,13.2,24.1c1,3,1.9,6.4,2.7,10.1c0,0-6.1-17.2-11.5-20.7c0,0-3.9-4.6-10.2-7.1
		c16.1,8,20.6,26,20.6,26l-4.8,1.8c-0.6,0.2-1.5,0.4-2.7,0.6c-4.9,1-15.5,3.2-23.4,4.5c-10.6,1.7-25.9-12-25.9-12h7.3
		c-3.4-3.6-2.7-9.5-2.7-9.5c0.2-1.1,0.4-2.1,0.8-3c-0.4,0.8-0.8,1.7-1,2.6c0,0-5.3-4-8.4-8.5c-1.6,5.4-2.8,11.2-3.6,17.5
		c-5.1,43.9,25.6,84.4,44.6,116.2c0.4,0.7,0.8,1.4,1.2,2.1c4,2.1,8,4,11.8,5.6C648.3,411,653.3,412.9,657.6,414.3z M713.9,347.8
		c-1.6-2.8-2.4-5.8-2.4-5.8l7.1,10.2C716.6,351.6,715.1,349.7,713.9,347.8z M688.6,285.8c0.4-3.1,2.6-18.8,13.7-27.2
		c12.3-9.4,32.6,0,32.6,0s1.9,1.5,3,2.7c1.6,0.7,2.5,1.2,2.5,1.2c6.4,3.3,10.5,0,10.5,0c-0.8,5.9-10.5,13.3-10.5,13.3
		c-0.3-0.9-0.6-1.8-1-2.6c0.3,0.9,0.6,1.9,0.8,3c0,0,0.7,5.9-2.7,9.5h7.3c0,0-15.3,13.7-25.9,12c-7.9-1.2-18.5-3.4-23.4-4.5
		c-1.2-0.2-2.1-0.3-2.7-0.6l-4.8-1.8c0,0,4.5-17.9,20.6-26c-6.2,2.5-10.2,7.1-10.2,7.1c-5.4,3.6-11.5,20.7-11.5,20.7
		C687.4,290.3,688,288,688.6,285.8z M657.6,339.7c0,0,1.5-2.5,3.6-2.5c2.2,0,5.1,2.5,5.1,2.5s4,2.6,5.1,2.1c1.1-0.4,3.1,0,4.8-2.3
		c1.7-2.3,2.6-2.4,2.6-2.4s2.5-1.2,4.1,0.6c0,0,2.2,1.6,1.8,3l-8.5,0.1c0,0-2.1,1.9-4.8,2.1s-5.3-2.1-5.3-2.1h-8.7
		C657.6,340.9,657.5,340.6,657.6,339.7z M631.9,351.1c-1.1,2-2.7,3.8-4.8,4.3l7.1-10.2C634.3,345.3,633.5,348.3,631.9,351.1z
		 M634.7,354.3l0.2,0.1c0,0,0,0,0,0c0,0,14.9,0.7,23.2-2.1s16.3-2.1,22.9,0s26.3,0.2,26.3,0.2s0.1,0.4,0.1,1l3.7-2.6l-3.6,3.9
		c0,4.4-1.9,14.5-15.8,26.5c-18.7,16.3-52.5-0.6-56.8-26.9L634.7,354.3z"/>
	<path class="st1" d="M734.1,289c1.5-1,2.8-2.1,3.4-3.3C737.5,285.7,736.4,287.2,734.1,289z"/>
	<path class="st1" d="M603.7,289c-2.3-1.8-3.4-3.3-3.4-3.3C600.9,286.9,602.1,288,603.7,289z"/>
	<path class="st1" d="M631,293.9c-7.6,0.2-15.4,0-15.4,0C618.2,294.6,624.7,294.4,631,293.9z"/>
	<path class="st2" d="M713.4,239.9c-4,0.8-17.5,7.9-19.8,9.5s0.8,8,3.5,6.1c2.7-1.9,11.3-6.3,11.3-6.3c9.8-6.5,27.1-6.5,38.7-5.6
		c-0.4-0.7-0.7-1.5-1.1-2.2c-0.4-0.7-0.8-1.4-1.2-2.1C731.7,237.1,716.2,239.3,713.4,239.9z"/>
	<path class="st2" d="M637.4,249.3c0,0,8.6,4.4,11.3,6.3c2.7,1.9,5.8-4.6,3.5-6.1s-15.9-8.7-19.8-9.5c-2.8-0.6-18.4-2.8-31.5-0.5
		c-0.8,1.4-1.5,2.9-2.2,4.3C610.2,242.8,627.6,242.8,637.4,249.3z"/>
	<path class="st3" d="M845.5,432.1c-3.3-5.4-7.1-10.5-11.3-15.2c-10.8-11.9-17.7-26.8-19.6-42.7c-1.3-12.2,0.5-24.5,5.1-35.9
		c6-19.6,3.6-40.7-6.6-58.5L779,180.8c-17.2-51.1-67.4-83.6-121.1-78.4c-18.9,2.1-36.4,8.9-48,24.2c0,0-41.9-3.4-53.4,61.3
		c-1,6.1-1.7,12.3-2,18.6l-1.7,35c-0.7,14-5.6,27.5-14.1,38.7l-20.8,27.3c-7.5,9.8-10.4,22.5-7.9,34.6l3,14.8
		c3.3,16.1,0.4,32.8-8.1,46.9l-7.9,13.2c-8.9,14.8-11.5,32.5-7.2,49.3c3.3,12.6,9.4,24.3,17.9,34.2l29.4,34.2
		c2.6-9.3,5.2-17.3,5.2-17.3c0-5.9,4.8-9.3,4.8-9.3c-0.3-4,67.9-47.6,82.1-56.6c0,0,0,0,0-0.1c0,0,0,0,0,0c0,0,0,0,0,0
		c0,0,0,0-0.1,0c3.7-7.2,7.1-16.4,7.2-26.5c0.1-6.9-1.3-14.1-5.2-21.4c-26.4-13.8-56.6-38.8-60.7-81.5c0,0-20.9,10-20.6-31.4
		c-0.3,41.3,20.6,31.3,20.6,31.3c4.1,42.7,34.2,67.7,60.7,81.5c-0.4-0.7-0.7-1.4-1.2-2.1c-19-31.8-49.7-72.4-44.6-116.2
		c0.7-6.3,2-12.1,3.6-17.5c-1.1-1.6-1.9-3.3-2.1-4.8c0,0,1.2,0.9,3.2,1.3c2.4-7.2,5.4-13.8,8.6-20.1c0.7-1.4,1.5-2.9,2.2-4.3
		c9.7-18.4,20.6-35.1,22.5-59.9c0,0,11,5.8,56.3,17.9c45.3,12.1,55.9,28.5,55.9,28.5c3.5,4.2,6.5,8.7,9.1,13.4
		c0.4,0.7,0.8,1.4,1.2,2.1c0.4,0.7,0.7,1.5,1.1,2.2c17.7,35,15.8,76.8-5.1,110.1l-24.8,39.8c42.2-29.8,46.2-58.2,46.2-67.8
		c0,9.6-3.9,38-46.2,67.9l-3.8,6.1c-4.8,7.7-7.2,16.2-7.4,24.7c-0.2,8.5,1.8,16.9,5.8,24.4c0,0,0,0.1,0,0.1l40.3,27.3l44.2,29.9
		c4.2,2.5,5.3,8.7,5.3,8.7c2.8,5.3,11.8,39.1,11.8,39.1l-0.1,0c-0.7-2.6-9.1-33.8-11.8-38.9c0,0-1.1-6.2-5.3-8.7l-44.3-30l-40-27.1
		l-0.2-0.2c3.1,5.8,7.4,11.1,12.8,15.4l19.8,15.7c1,0.8,1.9,1.5,2.8,2.3c12.3,11,19.2,26.8,19.2,43.3c0,1.9-0.1,3.8-0.3,5.7
		c-0.6,5.2-0.9,10.7-0.9,16.5c0,1.9,0,3.8,0.1,5.7c0,0.1,0,0.2,0,0.2l0,0c1.1,23.4,9.1,48.4,34.7,59.9c0,0-20.1-26,21.6-58.5
		c22.4-17.5,31.5-43.3,35.1-63.4C860.5,471.3,856.5,450,845.5,432.1z M763.2,322.3C763.2,322.3,763.2,322.2,763.2,322.3
		c0-0.1,18.6-8.1,19.2-25.5C781.9,314.2,763.4,322.2,763.2,322.3z"/>
	<path class="st4" d="M717.2,393.6c-5.1,3.6-10.8,7.3-17.1,10.9c0,3.1,0.1,6,0.3,8.6c0.8,9.2,2.5,21.2,2.5,21.2
		c2.8,12.7,7.9,13.8,7.9,13.8l1,0.7l0,0c-4-7.5-6-16-5.8-24.4c0.2-8.5,2.6-17,7.4-24.7L717.2,393.6z"/>
	<path class="st1" d="M700.3,413.1c-0.1-2.6-0.2-5.5-0.3-8.6C699.9,406.3,700,409.5,700.3,413.1z"/>
	<path class="st1" d="M619.4,465.9c0,0-4.8,4.8-11.5,15.4c12.4,14.3,38.7,38.6,73.5,36.3c32.7-2.2,54.7-22,65.8-35
		c-0.9-0.8-1.8-1.6-2.8-2.3l-19.8-15.7c-5.4-4.3-9.7-9.6-12.8-15.4l0.2,0.2c-0.1-0.1-0.1-0.2-0.2-0.3c0,0,0-0.1,0-0.1l0,0l-1-0.7
		c0,0-5.1-1.1-7.9-13.8c-30.4,6.9-58.7-24.2-59.9-25.6c0,0,0,0,0,0c-0.5,10.5-1.6,27.8-4.2,33.1c-3.8,7.8-7,7.6-7,7.6
		s-0.9,0.6-2.5,1.6c0,0,0,0,0,0c0,0,0,0,0,0.1c0,0,0,0.1,0,0.1c0,0,0.1,0,0.1-0.1C624.5,460.2,619.4,465.9,619.4,465.9z"/>
	<path class="st1" d="M657.3,414.2c-4.1-1.4-8.9-3.1-14.1-5.4C648.1,411.6,652.8,413.3,657.3,414.2z"/>
	<path class="st5" d="M766,531.3c0.2-1.8,0.3-3.6,0.3-5.5c0.1-16.5-6.9-32.2-19.2-43.3c-11.1,13-33.1,32.8-65.8,35
		c-34.8,2.3-61.1-21.9-73.5-36.3c-6.9,10.9-16,27.9-23.9,52.3c-2.4,7.3-5,13.7-7.8,19.4l189.1,0.8c-0.1-1.9-0.1-3.8-0.1-5.7
		C765.1,542.1,765.4,536.5,766,531.3z"/>
	<path class="st1" d="M686.3,411.9c8.5-3.2,13.8-7.4,13.8-7.4C695.8,407,691.2,409.4,686.3,411.9z"/>
	<path class="st4" d="M638.7,441.8c2.6-5.3,3.8-22.7,4.2-33.1c-3.8-1.6-7.7-3.5-11.8-5.6c3.9,7.3,5.3,14.6,5.2,21.5
		c-0.1,10.1-3.5,19.3-7.2,26.5c0,0,0,0,0.1,0c1.6-1,2.5-1.6,2.5-1.6S634.9,449.6,638.7,441.8z"/>
	<path class="st3" d="M607.9,481.3c6.7-10.6,11.5-15.4,11.5-15.4s5.1-5.7,9.8-14.7c0,0-0.1,0-0.1,0.1c-14.3,9.1-82.3,52.5-82.1,56.6
		c0,0-4.8,3.4-4.8,9.3c0,0-2.5,8-5.2,17.3l3.3,3.8c3.7,4.3,6.3,9.3,7.8,14.6l0,0c1,3.7,1.5,7.5,1.4,11.4c-0.1,10.2-2.7,20.1-7.6,29
		c0,0,18.8-8.6,34.2-40.3l0.1,0c0,0,0-0.1,0.1-0.1c2.8-5.7,5.4-12.1,7.8-19.4C591.9,509.2,600.9,492.2,607.9,481.3z"/>
	<path class="st6" d="M691.7,381.4c13.9-12.1,15.7-22.1,15.8-26.5l-4.3,4.7v0.3c-2.4,7.6-17.7,14.9-32.6,15.6
		c-14.9,0.7-27.7-12.5-27.7-12.5v-3.1c10,2.8,30.1,1.7,30.1,1.7c16.3,1,30.1-5.2,30.1-5.2l4.3-3c-0.1-0.7-0.1-1-0.1-1
		s-19.7,1.9-26.3-0.2s-14.5-2.8-22.9,0s-23.2,2.1-23.2,2.1c0,0,0,0,0,0l7.8,5.4v3.1l-7.8-8.4C639.2,380.8,673,397.7,691.7,381.4z"/>
	<path class="st7" d="M673,361.7c0,0-20.1,1-30.1-1.7v3.1c0,0,12.8,13.2,27.7,12.5c14.9-0.7,30.1-8,32.6-15.6v-0.3v-3.1
		C703.1,356.5,689.3,362.7,673,361.7z"/>
	<polygon class="st3" points="796.9,615.3 796.9,615.3 796.9,615.3 	"/>
	<path class="st8" d="M631.9,256.8c3.8,1.2,7.5,2.9,10.5,5.5c12.8,11.1,15.8,49.5,15.8,49.5c3.8-9.8-5.5-42.6-5.5-42.6
		c-6-30.7-48.2-13.6-48.2-13.6s5.4-0.9,12.5-0.8C621.9,254.1,627.2,254.4,631.9,256.8z"/>
	<path class="st9" d="M695.5,293.2c-1.7-0.4-2.7-0.6-2.7-0.6C693.4,292.9,694.4,293.1,695.5,293.2z"/>
	<path class="st9" d="M717.6,263.3c-3.3-0.2-6.4,0.6-9,1.6c-16.1,8-20.6,26-20.6,26l4.8,1.8c0,0,6.8,0.8,13.9,1.3
		c7.6,0.2,15.4,0,15.4,0c3.8-1,8.6-2.7,11.9-4.9c2.3-1.8,3.4-3.3,3.4-3.3c3.4-3.6,2.7-9.5,2.7-9.5c-0.2-1.1-0.4-2.1-0.8-3
		C734,262.4,717.6,263.3,717.6,263.3z M714.1,293.9c-4.2,0-7.9-1.8-10.5-4.7c-1.1-0.6-1.8-1.6-2-2.8c-1.1-2-1.7-4.3-1.7-6.8
		c0-7.9,6.4-14.3,14.3-14.3s14.3,6.4,14.3,14.3C728.4,287.5,722,293.9,714.1,293.9z"/>
	<path class="st9" d="M620.1,263.3c0,0-16.4-0.9-21.8,9.9c-0.3,0.9-0.6,1.9-0.8,3c0,0-0.7,5.9,2.7,9.5c0,0,1.1,1.5,3.4,3.3
		c3.3,2.2,8.1,4,11.9,4.9c0,0,7.7,0.2,15.4,0c7.2-0.5,13.9-1.3,13.9-1.3l4.8-1.8c0,0-4.5-17.9-20.6-26
		C626.5,263.9,623.5,263.2,620.1,263.3z M637.9,279.6c0,7.9-6.4,14.3-14.3,14.3c-3.4,0-6.4-1.2-8.9-3.1c-0.1,0-0.2,0-0.4,0
		c-2.3,0-4.1-1.8-4.1-4.1c0-0.5,0.1-1,0.3-1.4c-0.8-1.8-1.2-3.7-1.2-5.8c0-7.9,6.4-14.3,14.3-14.3
		C631.5,265.4,637.9,271.7,637.9,279.6z"/>
	<path class="st9" d="M644.9,292.7c0,0-1,0.2-2.7,0.6C643.4,293.1,644.3,292.9,644.9,292.7z"/>
	<path class="st10" d="M734.1,289c-3.3,2.2-8.1,4-11.9,4.9c-2.6,0.7-9.1,0.4-15.4,0c-7.2-0.5-13.9-1.3-13.9-1.3s1,0.2,2.7,0.6
		c4.9,1,15.5,3.2,23.4,4.5c10.6,1.7,25.9-12,25.9-12h-7.3C736.8,286.9,735.6,288,734.1,289z"/>
	<path class="st10" d="M615.6,293.9c-3.8-1-8.6-2.7-11.9-4.9c-1.5-1-2.8-2.1-3.4-3.3H593c0,0,15.3,13.7,25.9,12
		c7.9-1.2,18.5-3.4,23.4-4.5c1.7-0.4,2.7-0.6,2.7-0.6s-6.8,0.8-13.9,1.3C624.7,294.4,618.2,294.6,615.6,293.9z"/>
	<path class="st11" d="M714.1,265.4c-7.9,0-14.3,6.4-14.3,14.3c0,2.5,0.6,4.8,1.7,6.8c0-0.2-0.1-0.5-0.1-0.7c0-2.1,1.6-3.8,3.6-4
		c-0.1-0.7-0.2-1.3-0.2-2c0-5.1,4.1-9.2,9.2-9.2s9.2,4.1,9.2,9.2s-4.1,9.2-9.2,9.2c-1.8,0-3.5-0.5-4.9-1.4c-0.7,1.4-2,2.3-3.7,2.3
		c-0.7,0-1.4-0.2-2-0.5c2.6,2.9,6.4,4.7,10.5,4.7c7.9,0,14.3-6.4,14.3-14.3C728.4,271.7,722,265.4,714.1,265.4z"/>
	<path class="st11" d="M609.3,279.6c0,2,0.4,4,1.2,5.8c0.6-1.6,2.1-2.7,3.8-2.7c0.2,0,0.4,0,0.6,0.1c-0.4-1-0.6-2-0.6-3.1
		c0-5.1,4.1-9.2,9.2-9.2c5.1,0,9.2,4.1,9.2,9.2s-4.1,9.2-9.2,9.2c-1.9,0-3.7-0.6-5.2-1.6c-0.2,1.9-1.7,3.4-3.7,3.6
		c2.4,1.9,5.5,3.1,8.9,3.1c7.9,0,14.3-6.4,14.3-14.3c0-7.9-6.4-14.3-14.3-14.3C615.7,265.4,609.3,271.7,609.3,279.6z"/>
	<path d="M618.4,286.8c0,0.2,0,0.3,0,0.5c1.5,1,3.3,1.6,5.2,1.6c5.1,0,9.2-4.1,9.2-9.2s-4.1-9.2-9.2-9.2c-5.1,0-9.2,4.1-9.2,9.2
		c0,1.1,0.2,2.1,0.6,3.1C616.9,283,618.4,284.7,618.4,286.8z M622.1,282.7c0.8,0,1.5,0.7,1.5,1.5s-0.7,1.5-1.5,1.5
		c-0.8,0-1.5-0.7-1.5-1.5S621.3,282.7,622.1,282.7z"/>
	<path d="M709.6,285.7c0,0.6-0.2,1.2-0.4,1.8c1.4,0.9,3.1,1.4,4.9,1.4c5.1,0,9.2-4.1,9.2-9.2s-4.1-9.2-9.2-9.2s-9.2,4.1-9.2,9.2
		c0,0.7,0.1,1.4,0.2,2c0.1,0,0.3,0,0.4,0C707.8,281.6,709.6,283.5,709.6,285.7z M712.2,281.2c0.8,0,1.5,0.7,1.5,1.5
		c0,0.8-0.7,1.5-1.5,1.5s-1.5-0.7-1.5-1.5C710.7,281.9,711.3,281.2,712.2,281.2z"/>
	<path class="st7" d="M712.2,284.2c0.8,0,1.5-0.7,1.5-1.5c0-0.8-0.7-1.5-1.5-1.5s-1.5,0.7-1.5,1.5
		C710.7,283.5,711.3,284.2,712.2,284.2z"/>
	<path class="st7" d="M622.1,285.7c0.8,0,1.5-0.7,1.5-1.5s-0.7-1.5-1.5-1.5c-0.8,0-1.5,0.7-1.5,1.5S621.3,285.7,622.1,285.7z"/>
	<path class="st7" d="M709.2,287.5c0.3-0.5,0.4-1.1,0.4-1.8c0-2.3-1.8-4.1-4.1-4.1c-0.2,0-0.3,0-0.4,0c-2,0.2-3.6,1.9-3.6,4
		c0,0.2,0,0.5,0.1,0.7c0.2,1.2,1,2.3,2,2.8c0.6,0.3,1.3,0.5,2,0.5C707.1,289.8,708.5,288.8,709.2,287.5z"/>
	<path class="st7" d="M618.4,287.3c0-0.2,0-0.3,0-0.5c0-2.1-1.5-3.8-3.5-4c-0.2,0-0.4-0.1-0.6-0.1c-1.8,0-3.3,1.1-3.8,2.7
		c-0.2,0.4-0.3,0.9-0.3,1.4c0,2.3,1.8,4.1,4.1,4.1c0.1,0,0.3,0,0.4,0C616.6,290.6,618.2,289.2,618.4,287.3z"/>
	<path class="st12" d="M718.9,257.4c8.5-0.2,15.5,2.3,19,3.9c-1.1-1.2-3-2.7-3-2.7s-20.3-9.4-32.6,0c-11.1,8.4-13.4,24.1-13.7,27.2
		C695.7,261.6,707.6,257.6,718.9,257.4z"/>
	<path class="st12" d="M618.8,257.4c10.8,0.2,22.2,3.8,29.3,25.2c-1.1-5.9-4.4-17.3-13.2-24.1c-0.9-0.7-1.9-1.3-2.9-1.8
		c-4.7-2.3-10.1-2.7-15-2.1c-8,0.9-14.6,3.9-14.6,3.9s-2.3,1.8-3.3,3.1C602.2,260.2,609.7,257.2,618.8,257.4z"/>
	<path d="M698.4,272c0,0,3.9-4.6,10.2-7.1c2.6-1.1,5.7-1.8,9-1.6c0,0,16.4-0.9,21.8,9.9c0.4,0.8,0.8,1.7,1,2.6
		c0,0,9.7-7.4,10.5-13.3c0,0-4.1,3.3-10.5,0c0,0-0.9-0.5-2.5-1.2c-3.5-1.6-10.6-4.1-19-3.9c-11.3,0.2-23.2,4.2-30.3,28.4
		c-0.6,2.2-1.2,4.4-1.8,6.9C686.9,292.8,693,275.6,698.4,272z"/>
	<path d="M597.3,275.9c0.3-0.9,0.6-1.8,1-2.6c5.4-10.8,21.8-9.9,21.8-9.9c3.3-0.2,6.4,0.6,9,1.6c6.2,2.5,10.2,7.1,10.2,7.1
		c5.4,3.6,11.5,20.7,11.5,20.7c-0.8-3.7-1.7-7.1-2.7-10.1c-7.1-21.4-18.5-25-29.3-25.2c-9.2-0.2-16.6,2.8-19.8,4.3
		c-1.1,0.5-1.7,0.9-1.7,0.9c-3,1.6-5.5,1.7-7.3,1.3c-2.1-0.4-3.2-1.3-3.2-1.3c0.2,1.6,1,3.2,2.1,4.8
		C592,271.8,597.3,275.9,597.3,275.9z"/>
	<polygon class="st13" points="703.1,359.6 707.5,354.9 711.1,350.9 707.4,353.5 703.1,356.5 	"/>
	<path class="st8" d="M713.9,347.8c1.1,2,2.7,3.8,4.8,4.3l-7.1-10.2C711.5,341.9,712.3,345,713.9,347.8z"/>
	<polygon class="st13" points="642.7,359.8 634.9,354.4 634.7,354.3 634.9,354.5 642.7,363 	"/>
	<path class="st8" d="M631.9,351.1c1.6-2.8,2.4-5.8,2.4-5.8l-7.1,10.2C629.2,354.9,630.8,353.1,631.9,351.1z"/>
	<path class="st14" d="M666.3,340.9c0,0,2.6,2.3,5.3,2.1s4.8-2.1,4.8-2.1l8.5-0.1c0.4-1.3-1.8-3-1.8-3c-1.7-1.9-4.1-0.6-4.1-0.6
		s-0.9,0.1-2.6,2.4c-1.7,2.3-3.8,1.9-4.8,2.3c-1.1,0.4-5.1-2.1-5.1-2.1s-2.9-2.5-5.1-2.5c-2.2,0-3.6,2.5-3.6,2.5
		c-0.1,0.9,0,1.2,0,1.2H666.3z"/>
	<path class="st15" d="M700.1,404.5c0,0-5.3,4.2-13.8,7.4c-0.1,0-0.2,0.1-0.2,0.1c-7.5,2.8-17.4,4.7-28.5,2.3c-0.1,0-0.2,0-0.2,0
		c-4.5-1-9.2-2.7-14.1-5.4c-0.1-0.1-0.2-0.1-0.3-0.2c0,0,0,0,0,0.1c1.2,1.4,29.5,32.5,59.9,25.6c0,0-1.8-12.1-2.5-21.2
		C700,409.5,699.9,406.3,700.1,404.5z"/>
</g>
</svg>
